Coordinates
version=1
nRows=17
nColumns=24
inDegrees=yes

Units are S.I. units (second, meters, Newtons, ...)
Angles are in degrees.

endheader
time	pelvis_tilt	pelvis_list	pelvis_rotation	pelvis_tx	pelvis_ty	pelvis_tz	hip_flexion_r	hip_adduction_r	hip_rotation_r	knee_angle_r	ankle_angle_r	subtalar_angle_r	mtp_angle_r	hip_flexion_l	hip_adduction_l	hip_rotation_l	knee_angle_l	ankle_angle_l	subtalar_angle_l	mtp_angle_l	lumbar_extension	lumbar_bending	lumbar_rotation
      1.79150000	     -0.44507479	      3.11421666	     -4.08627880	      1.36174965	      1.02239734	      0.28450476	     13.96765914	     -7.13974858	     -5.99200276	    -61.32470291	      6.06048918	     -6.49073098	      1.26133769	     12.90966047	      9.26032784	      1.20544904	    -17.60646471	      6.27424097	    -14.09691832	      1.78759835	     -5.02247298	     -5.51083346	      4.56830642
      1.79566667	     -0.40583382	      3.01074345	     -4.02192837	      1.36647508	      1.02324807	      0.28420111	     14.51704779	     -6.94692432	     -5.83915005	    -60.87770086	      6.28526107	     -6.83696863	      1.23809568	     12.41813959	      9.20261943	      1.32392029	    -17.32189139	      6.32307117	    -14.09621323	      1.75726753	     -5.16091952	     -5.38370732	      4.44321844
      1.79983333	     -0.35176680	      2.91874862	     -3.94917856	      1.37124870	      1.02408731	      0.28388984	     15.03074151	     -6.77134941	     -5.69836805	    -60.38738171	      6.45052651	     -7.17700150	      1.19862914	     11.89171830	      9.16242723	      1.48077713	    -16.99420015	      6.33095690	    -14.14730720	      1.71160067	     -5.27516989	     -5.27991396	      4.30862786
      1.80400000	     -0.32885461	      2.84377372	     -3.87715215	      1.37603757	      1.02481247	      0.28359720	     15.57174526	     -6.61367925	     -5.55988345	    -59.88241038	      6.72475272	     -7.44540646	      1.18283711	     11.40838659	      9.13140600	      1.60379415	    -16.68699159	      6.36298244	    -14.14518852	      1.69120829	     -5.33692595	     -5.19617346	      4.24537329
      1.80816667	     -0.29104617	      2.76145009	     -3.81618808	      1.38076361	      1.02551332	      0.28331984	     16.09093384	     -6.43847366	     -5.40223841	    -59.32847520	      6.78845183	     -7.83806926	      1.12367944	     10.91019518	      9.10028138	      1.79433199	    -16.37221229	      6.34541139	    -14.26583621	      1.63071388	     -5.46782054	     -5.10048650	      4.10615128
      1.81233333	     -0.25020824	      2.69032628	     -3.76013728	      1.38550668	      1.02616955	      0.28308817	     16.59697931	     -6.26849414	     -5.23259967	    -58.75742657	      6.96873180	     -8.15257648	      1.07925181	     10.41327043	      9.07081458	      1.92865958	    -16.07054345	      6.35489684	    -14.32617110	      1.58150469	     -5.59487240	     -5.03024563	      4.02458315
      1.81650000	     -0.24892078	      2.62184835	     -3.69536330	      1.39019282	      1.02670068	      0.28284958	     17.14307845	     -6.10114040	     -5.07402653	    -58.16123855	      7.09592729	     -8.46610511	      1.03295079	      9.97626270	      9.04006001	      2.06309923	    -15.78961896	      6.37713169	    -14.37535234	      1.53430956	     -5.65954672	     -4.95725508	      3.93391157
      1.82066667	     -0.24156763	      2.57089955	     -3.65248747	      1.39496597	      1.02720924	      0.28265346	     17.66754887	     -5.95003554	     -4.89807954	    -57.53444604	      7.25198067	     -8.71181979	      1.00307322	      9.51912885	      9.01956811	      2.14117211	    -15.48058278	      6.41804056	    -14.39570459	      1.50476176	     -5.68862957	     -4.89534512	      3.87293688
      1.82483333	     -0.22229827	      2.50354909	     -3.59013820	      1.39964483	      1.02769860	      0.28246775	     18.16386594	     -5.76858522	     -4.71773268	    -56.86071257	      7.29108846	     -9.05395660	      0.94637268	      9.06619391	      8.98868316	      2.29581191	    -15.20913388	      6.42917261	    -14.47197777	      1.45083012	     -5.81056897	     -4.84239270	      3.77425033
      1.82900000	     -0.22082908	      2.46606418	     -3.54853398	      1.40436594	      1.02808734	      0.28229903	     18.68098823	     -5.62356864	     -4.52782621	    -56.18025939	      7.32700273	     -9.31927825	      0.87159165	      8.63040776	      8.98482502	      2.40999031	    -14.92732055	      6.45064312	    -14.54606119	      1.37546940	     -5.87054728	     -4.80089509	      3.67298342
      1.83316667	     -0.21925289	      2.41832221	     -3.49202573	      1.40907684	      1.02843834	      0.28213492	     19.17518050	     -5.46326593	     -4.33902042	    -55.46572814	      7.40135538	     -9.54032678	      0.79150613	      8.20257916	      8.96848324	      2.53420242	    -14.66114304	      6.49066550	    -14.59832912	      1.29361161	     -5.92977760	     -4.76120947	      3.59153267
      1.83733333	     -0.22052402	      2.38363059	     -3.44998164	      1.41373262	      1.02871237	      0.28201732	     19.67875067	     -5.30740973	     -4.12653176	    -54.74428870	      7.49768181	     -9.73104766	      0.73870384	      7.79751477	      8.95851713	      2.60088617	    -14.42687162	      6.55130416	    -14.62774679	      1.23917389	     -5.99638465	     -4.74279713	      3.52721117
      1.84150000	     -0.22641105	      2.36715021	     -3.39615265	      1.41843571	      1.02896249	      0.28188224	     20.16495537	     -5.17767157	     -3.92555349	    -53.98957526	      7.52895169	     -9.91532890	      0.52920139	      7.38096240	      8.97651927	      2.74311732	    -14.16073336	      6.55684751	    -14.75988974	      1.00526457	     -6.05309275	     -4.74381609	      3.39416447
      1.84566667	     -0.23753739	      2.32339639	     -3.32553734	      1.42308780	      1.02914898	      0.28174210	     20.63915956	     -5.01968476	     -3.73928754	    -53.20038658	      7.57057815	    -10.01953304	      0.48874512	      7.00558281	      8.95665977	      2.82682028	    -13.97564936	      6.67088378	    -14.73593247	      0.96193460	     -6.10332992	     -4.70231208	      3.36001580
      1.84983333	     -0.25860765	      2.31974910	     -3.26778949	      1.42780150	      1.02927314	      0.28164306	     21.12066913	     -4.90030198	     -3.52615071	    -52.40907924	      7.63700260	    -10.03221300	      0.47703306	      6.63354880	      8.97616475	      2.89744628	    -13.76423460	      6.75428277	    -14.69493822	      0.95059618	     -6.11984949	     -4.73734217	      3.32215411
      1.85400000	     -0.24745078	      2.28711025	     -3.20006500	      1.43245698	      1.02943750	      0.28153405	     21.54001542	     -4.74738717	     -3.32347516	    -51.55648443	      7.58231799	    -10.22259661	      0.34122804	      6.21991930	      8.97248084	      3.03083385	    -13.53996260	      6.80180462	    -14.80990740	      0.77544977	     -6.22904085	     -4.70140807	      3.13357032
      1.85816667	     -0.26625216	      2.25501393	     -3.11232246	      1.43711190	      1.02950385	      0.28140982	     21.98060888	     -4.60250876	     -3.13364337	    -50.69683111	      7.57570319	    -10.22665257	      0.31005146	      5.86592916	      8.96312734	      3.12995541	    -13.37967078	      6.91841734	    -14.80630001	      0.73741568	     -6.26844250	     -4.67879863	      3.09109216
